<?xml version="1.0" encoding="UTF-8"?>
<svg xmlns="http://www.w3.org/2000/svg" width="1920" height="1080" viewBox="0 0 1920 1080">
  <defs>
    <linearGradient id="bgGrad" x1="0%" y1="0%" x2="100%" y2="100%">
      <stop offset="0%" stop-color="#070B12" />
      <stop offset="100%" stop-color="#0E1422" />
    </linearGradient>
    <linearGradient id="lineGrad" x1="0%" y1="0%" x2="100%" y2="0%">
      <stop offset="0%" stop-color="#27324A" />
      <stop offset="35%" stop-color="#6BD8FF" />
      <stop offset="70%" stop-color="#27324A" />
      <stop offset="100%" stop-color="#27324A" />
    </linearGradient>
    <radialGradient id="glowLime" cx="50%" cy="50%" r="50%">
      <stop offset="0%" stop-color="#C9FF2F" stop-opacity="0.24" />
      <stop offset="100%" stop-color="#C9FF2F" stop-opacity="0" />
    </radialGradient>
    <radialGradient id="glowCyan" cx="50%" cy="50%" r="50%">
      <stop offset="0%" stop-color="#6BD8FF" stop-opacity="0.2" />
      <stop offset="100%" stop-color="#6BD8FF" stop-opacity="0" />
    </radialGradient>
    <marker id="arrowHead" markerWidth="12" markerHeight="12" refX="10" refY="6" orient="auto">
      <path d="M0,0 L12,6 L0,12 z" fill="#6BD8FF" />
    </marker>
    <marker id="arrowHeadRed" markerWidth="12" markerHeight="12" refX="10" refY="6" orient="auto">
      <path d="M0,0 L12,6 L0,12 z" fill="#FF6A62" />
    </marker>
  </defs>
  <rect width="1920" height="1080" fill="url(#bgGrad)" />
  <rect x="0" y="0" width="1920" height="10" fill="#C9FF2F" />
  <circle cx="1838" cy="66" r="6" fill="#7D97FF" />
  <circle cx="420" cy="670" r="360" fill="url(#glowCyan)" /><circle cx="1510" cy="670" r="280" fill="url(#glowLime)" />
  <g opacity="0.11">
    <line x1="0" y1="120" x2="1920" y2="120" stroke="#27324A" stroke-width="1" /><line x1="0" y1="168" x2="1920" y2="168" stroke="#27324A" stroke-width="1" /><line x1="0" y1="216" x2="1920" y2="216" stroke="#27324A" stroke-width="1" /><line x1="0" y1="264" x2="1920" y2="264" stroke="#27324A" stroke-width="1" /><line x1="0" y1="312" x2="1920" y2="312" stroke="#27324A" stroke-width="1" /><line x1="0" y1="360" x2="1920" y2="360" stroke="#27324A" stroke-width="1" /><line x1="0" y1="408" x2="1920" y2="408" stroke="#27324A" stroke-width="1" /><line x1="0" y1="456" x2="1920" y2="456" stroke="#27324A" stroke-width="1" /><line x1="0" y1="504" x2="1920" y2="504" stroke="#27324A" stroke-width="1" /><line x1="0" y1="552" x2="1920" y2="552" stroke="#27324A" stroke-width="1" /><line x1="0" y1="600" x2="1920" y2="600" stroke="#27324A" stroke-width="1" /><line x1="0" y1="648" x2="1920" y2="648" stroke="#27324A" stroke-width="1" /><line x1="0" y1="696" x2="1920" y2="696" stroke="#27324A" stroke-width="1" /><line x1="0" y1="744" x2="1920" y2="744" stroke="#27324A" stroke-width="1" /><line x1="0" y1="792" x2="1920" y2="792" stroke="#27324A" stroke-width="1" /><line x1="0" y1="840" x2="1920" y2="840" stroke="#27324A" stroke-width="1" /><line x1="0" y1="888" x2="1920" y2="888" stroke="#27324A" stroke-width="1" /><line x1="0" y1="936" x2="1920" y2="936" stroke="#27324A" stroke-width="1" /><line x1="0" y1="984" x2="1920" y2="984" stroke="#27324A" stroke-width="1" /><line x1="0" y1="1032" x2="1920" y2="1032" stroke="#27324A" stroke-width="1" />
    <line x1="72" y1="0" x2="72" y2="1080" stroke="#27324A" stroke-width="1" /><line x1="176" y1="0" x2="176" y2="1080" stroke="#27324A" stroke-width="1" /><line x1="280" y1="0" x2="280" y2="1080" stroke="#27324A" stroke-width="1" /><line x1="384" y1="0" x2="384" y2="1080" stroke="#27324A" stroke-width="1" /><line x1="488" y1="0" x2="488" y2="1080" stroke="#27324A" stroke-width="1" /><line x1="592" y1="0" x2="592" y2="1080" stroke="#27324A" stroke-width="1" /><line x1="696" y1="0" x2="696" y2="1080" stroke="#27324A" stroke-width="1" /><line x1="800" y1="0" x2="800" y2="1080" stroke="#27324A" stroke-width="1" /><line x1="904" y1="0" x2="904" y2="1080" stroke="#27324A" stroke-width="1" /><line x1="1008" y1="0" x2="1008" y2="1080" stroke="#27324A" stroke-width="1" /><line x1="1112" y1="0" x2="1112" y2="1080" stroke="#27324A" stroke-width="1" /><line x1="1216" y1="0" x2="1216" y2="1080" stroke="#27324A" stroke-width="1" /><line x1="1320" y1="0" x2="1320" y2="1080" stroke="#27324A" stroke-width="1" /><line x1="1424" y1="0" x2="1424" y2="1080" stroke="#27324A" stroke-width="1" /><line x1="1528" y1="0" x2="1528" y2="1080" stroke="#27324A" stroke-width="1" /><line x1="1632" y1="0" x2="1632" y2="1080" stroke="#27324A" stroke-width="1" /><line x1="1736" y1="0" x2="1736" y2="1080" stroke="#27324A" stroke-width="1" /><line x1="1840" y1="0" x2="1840" y2="1080" stroke="#27324A" stroke-width="1" />
  </g>
  <text x="92" y="116" fill="#7E8AA4" font-size="18" font-weight="700" font-family="Avenir Next, Helvetica Neue, Arial, sans-serif" text-anchor="start" letter-spacing="1.4"><tspan x="92" dy="0">ARCHITECTURE SPLIT</tspan></text>
  <text x="92" y="180" fill="#F4F7FB" font-size="58" font-weight="550" font-family="Avenir Next, Helvetica Neue, Arial, sans-serif" text-anchor="start" letter-spacing="0"><tspan x="92" dy="0">Truth lives left. Compatibility lives right.</tspan></text>
  <text x="92" y="244" fill="#BBC6DB" font-size="25" font-weight="450" font-family="Avenir Next, Helvetica Neue, Arial, sans-serif" text-anchor="start" letter-spacing="0"><tspan x="92" dy="0">The repo already has an authoritative stage model. The product still exposes a legacy flat mask alongside it.</tspan></text>
  <text x="1842" y="120" fill="#BBC6DB" font-size="22" font-weight="700" font-family="Avenir Next, Helvetica Neue, Arial, sans-serif" text-anchor="end" letter-spacing="0.8"><tspan x="1842" dy="0">2 / 7</tspan></text>
  <line x1="92" y1="206" x2="1828" y2="206" stroke="url(#lineGrad)" stroke-width="2" />
  
    <rect x="92" y="300" width="920" height="632" rx="32" ry="32" fill="#0F1624" stroke="#6BD8FF" stroke-width="3" />
    <text x="132" y="362" fill="#6BD8FF" font-size="22" font-weight="700" font-family="Avenir Next, Helvetica Neue, Arial, sans-serif" text-anchor="start" letter-spacing="1.1"><tspan x="132" dy="0">CANONICAL PATH</tspan></text>
    <text x="132" y="418" fill="#F4F7FB" font-size="54" font-weight="550" font-family="Avenir Next, Helvetica Neue, Arial, sans-serif" text-anchor="start" letter-spacing="0"><tspan x="132" dy="0">analysis-runs</tspan></text>
    
    <rect x="136" y="474" width="692" height="132" rx="28" ry="28" fill="#132212" stroke="#27324A" stroke-width="2" />
    
    <rect x="158" y="492" width="120" height="40" rx="20" ry="20" fill="#C9FF2F" />
    <text x="218" y="521" fill="#111714" font-size="20" font-weight="700" font-family="Avenir Next, Helvetica Neue, Arial, sans-serif" text-anchor="middle" letter-spacing="0.6"><tspan x="218" dy="0">TRUTH</tspan></text>
  
    <text x="160" y="572" fill="#F4F7FB" font-size="44" font-weight="600" font-family="Avenir Next, Helvetica Neue, Arial, sans-serif" text-anchor="start" letter-spacing="0"><tspan x="160" dy="0">Measurement</tspan></text>
    <text x="160" y="616" fill="#C9D6C2" font-size="22" font-weight="450" font-family="Avenir Next, Helvetica Neue, Arial, sans-serif" text-anchor="start" letter-spacing="0"><tspan x="160" dy="0">Authoritative. Persisted after</tspan><tspan x="160" dy="28">`transcriptionDetail` is stripped.</tspan></text>
  
    
    <rect x="136" y="638" width="692" height="132" rx="28" ry="28" fill="#11192C" stroke="#27324A" stroke-width="2" />
    
    <rect x="158" y="656" width="130.4" height="40" rx="20" ry="20" fill="#7D97FF" />
    <text x="223.2" y="685" fill="#111926" font-size="20" font-weight="700" font-family="Avenir Next, Helvetica Neue, Arial, sans-serif" text-anchor="middle" letter-spacing="0.6"><tspan x="223.2" dy="0">ADDITIVE</tspan></text>
  
    <text x="160" y="736" fill="#F4F7FB" font-size="42" font-weight="600" font-family="Avenir Next, Helvetica Neue, Arial, sans-serif" text-anchor="start" letter-spacing="0"><tspan x="160" dy="0">Symbolic Extraction</tspan></text>
    <text x="160" y="780" fill="#BBC6DB" font-size="22" font-weight="450" font-family="Avenir Next, Helvetica Neue, Arial, sans-serif" text-anchor="start" letter-spacing="0"><tspan x="160" dy="0">Optional. Best-effort stage. Result lives</tspan><tspan x="160" dy="28">separately from measurement.</tspan></text>
  
    
    <rect x="136" y="802" width="692" height="132" rx="28" ry="28" fill="#112632" stroke="#27324A" stroke-width="2" />
    
    <rect x="158" y="820" width="130.4" height="40" rx="20" ry="20" fill="#6BD8FF" />
    <text x="223.2" y="849" fill="#10222B" font-size="20" font-weight="700" font-family="Avenir Next, Helvetica Neue, Arial, sans-serif" text-anchor="middle" letter-spacing="0.6"><tspan x="223.2" dy="0">GROUNDED</tspan></text>
  
    <text x="160" y="900" fill="#F4F7FB" font-size="42" font-weight="600" font-family="Avenir Next, Helvetica Neue, Arial, sans-serif" text-anchor="start" letter-spacing="0"><tspan x="160" dy="0">Interpretation</tspan></text>
    <text x="160" y="944" fill="#BBC6DB" font-size="22" font-weight="450" font-family="Avenir Next, Helvetica Neue, Arial, sans-serif" text-anchor="start" letter-spacing="0"><tspan x="160" dy="0">Grounded by authoritative measurement.</tspan><tspan x="160" dy="28">Symbolic can enrich but does not become truth.</tspan></text>
  
    <path d="M836 702 L998 702" fill="none" stroke="#40526F" stroke-width="14" stroke-linecap="round" markerEnd="url(#arrowHead)" />
    <text x="856" y="664" fill="#7E8AA4" font-size="18" font-weight="700" font-family="Avenir Next, Helvetica Neue, Arial, sans-serif" text-anchor="start" letter-spacing="0.8"><tspan x="856" dy="0">UI projection</tspan></text>

    <rect x="1066" y="300" width="762" height="632" rx="32" ry="32" fill="#201A12" stroke="#FFB357" stroke-width="3" />
    
    <rect x="1112" y="334" width="210" height="46" rx="23" ry="23" fill="#FFB357" />
    <text x="1217" y="363" fill="#16120D" font-size="20" font-weight="700" font-family="Avenir Next, Helvetica Neue, Arial, sans-serif" text-anchor="middle" letter-spacing="0.6"><tspan x="1217" dy="0">COMPATIBILITY</tspan></text>
  
    <text x="1112" y="418" fill="#F4F7FB" font-size="54" font-weight="550" font-family="Avenir Next, Helvetica Neue, Arial, sans-serif" text-anchor="start" letter-spacing="0"><tspan x="1112" dy="0">Legacy flat phase1 blob</tspan></text>
    
    <rect x="1112" y="468" width="672" height="346" rx="24" ry="24" fill="#181D2B" stroke="#FFB357" stroke-width="2" />
    
    <text x="1140" y="524" fill="#F4F7FB" font-size="34" font-weight="600" font-family="Avenir Next, Helvetica Neue, Arial, sans-serif" text-anchor="start" letter-spacing="0"><tspan x="1140" dy="0">What still lives here</tspan></text>
    <text x="1140" y="570" fill="#BBC6DB" font-size="24" font-weight="450" font-family="Avenir Next, Helvetica Neue, Arial, sans-serif" text-anchor="start" letter-spacing="0"><tspan x="1140" dy="0">bpm</tspan><tspan x="1140" dy="29">key</tspan><tspan x="1140" dy="29">lufsIntegrated</tspan><tspan x="1140" dy="29">stereoDetail</tspan><tspan x="1140" dy="29">spectralBalance</tspan><tspan x="1140" dy="29">melodyDetail</tspan><tspan x="1140" dy="29">transcriptionDetail</tspan><tspan x="1140" dy="29">arrangementDetail</tspan><tspan x="1140" dy="29">segment data</tspan><tspan x="1140" dy="29">chord detail</tspan><tspan x="1140" dy="29">perceptual</tspan></text>
  
    
    <rect x="1112" y="850" width="274" height="54" rx="27" ry="27" fill="#FF6A62" />
    <text x="1249" y="879" fill="#FFFFFF" font-size="22" font-weight="700" font-family="Avenir Next, Helvetica Neue, Arial, sans-serif" text-anchor="middle" letter-spacing="0.6"><tspan x="1249" dy="0">DO NOT EXPAND</tspan></text>
  
    <text x="1410" y="885" fill="#BBC6DB" font-size="24" font-weight="500" font-family="Avenir Next, Helvetica Neue, Arial, sans-serif" text-anchor="start" letter-spacing="0"><tspan x="1410" dy="0">Useful during migration. Wrong long-term center of gravity.</tspan></text>
  
  <text x="88" y="1038" fill="#7E8AA4" font-size="16" font-weight="500" font-family="Avenir Next, Helvetica Neue, Arial, sans-serif" text-anchor="start" letter-spacing="0.2"><tspan x="88" dy="0">Observed in analysis_runtime.py:get_run, server.py:/api/analyze, and ui/services/analysisRunsClient.ts:projectPhase1FromRun.</tspan></text>
</svg>