<?xml version="1.0" encoding="UTF-8"?>
<svg xmlns="http://www.w3.org/2000/svg" width="1920" height="1080" viewBox="0 0 1920 1080">
  <defs>
    <linearGradient id="bgGrad" x1="0%" y1="0%" x2="100%" y2="100%">
      <stop offset="0%" stop-color="#070B12" />
      <stop offset="100%" stop-color="#0E1422" />
    </linearGradient>
    <linearGradient id="lineGrad" x1="0%" y1="0%" x2="100%" y2="0%">
      <stop offset="0%" stop-color="#27324A" />
      <stop offset="35%" stop-color="#6BD8FF" />
      <stop offset="70%" stop-color="#27324A" />
      <stop offset="100%" stop-color="#27324A" />
    </linearGradient>
    <radialGradient id="glowLime" cx="50%" cy="50%" r="50%">
      <stop offset="0%" stop-color="#C9FF2F" stop-opacity="0.24" />
      <stop offset="100%" stop-color="#C9FF2F" stop-opacity="0" />
    </radialGradient>
    <radialGradient id="glowCyan" cx="50%" cy="50%" r="50%">
      <stop offset="0%" stop-color="#6BD8FF" stop-opacity="0.2" />
      <stop offset="100%" stop-color="#6BD8FF" stop-opacity="0" />
    </radialGradient>
    <marker id="arrowHead" markerWidth="12" markerHeight="12" refX="10" refY="6" orient="auto">
      <path d="M0,0 L12,6 L0,12 z" fill="#6BD8FF" />
    </marker>
    <marker id="arrowHeadRed" markerWidth="12" markerHeight="12" refX="10" refY="6" orient="auto">
      <path d="M0,0 L12,6 L0,12 z" fill="#FF6A62" />
    </marker>
  </defs>
  <rect width="1920" height="1080" fill="url(#bgGrad)" />
  <rect x="0" y="0" width="1920" height="10" fill="#C9FF2F" />
  <circle cx="1838" cy="66" r="6" fill="#7D97FF" />
  <circle cx="360" cy="430" r="240" fill="url(#glowLime)" /><circle cx="1540" cy="430" r="240" fill="url(#glowCyan)" />
  <g opacity="0.11">
    <line x1="0" y1="120" x2="1920" y2="120" stroke="#27324A" stroke-width="1" /><line x1="0" y1="168" x2="1920" y2="168" stroke="#27324A" stroke-width="1" /><line x1="0" y1="216" x2="1920" y2="216" stroke="#27324A" stroke-width="1" /><line x1="0" y1="264" x2="1920" y2="264" stroke="#27324A" stroke-width="1" /><line x1="0" y1="312" x2="1920" y2="312" stroke="#27324A" stroke-width="1" /><line x1="0" y1="360" x2="1920" y2="360" stroke="#27324A" stroke-width="1" /><line x1="0" y1="408" x2="1920" y2="408" stroke="#27324A" stroke-width="1" /><line x1="0" y1="456" x2="1920" y2="456" stroke="#27324A" stroke-width="1" /><line x1="0" y1="504" x2="1920" y2="504" stroke="#27324A" stroke-width="1" /><line x1="0" y1="552" x2="1920" y2="552" stroke="#27324A" stroke-width="1" /><line x1="0" y1="600" x2="1920" y2="600" stroke="#27324A" stroke-width="1" /><line x1="0" y1="648" x2="1920" y2="648" stroke="#27324A" stroke-width="1" /><line x1="0" y1="696" x2="1920" y2="696" stroke="#27324A" stroke-width="1" /><line x1="0" y1="744" x2="1920" y2="744" stroke="#27324A" stroke-width="1" /><line x1="0" y1="792" x2="1920" y2="792" stroke="#27324A" stroke-width="1" /><line x1="0" y1="840" x2="1920" y2="840" stroke="#27324A" stroke-width="1" /><line x1="0" y1="888" x2="1920" y2="888" stroke="#27324A" stroke-width="1" /><line x1="0" y1="936" x2="1920" y2="936" stroke="#27324A" stroke-width="1" /><line x1="0" y1="984" x2="1920" y2="984" stroke="#27324A" stroke-width="1" /><line x1="0" y1="1032" x2="1920" y2="1032" stroke="#27324A" stroke-width="1" />
    <line x1="72" y1="0" x2="72" y2="1080" stroke="#27324A" stroke-width="1" /><line x1="176" y1="0" x2="176" y2="1080" stroke="#27324A" stroke-width="1" /><line x1="280" y1="0" x2="280" y2="1080" stroke="#27324A" stroke-width="1" /><line x1="384" y1="0" x2="384" y2="1080" stroke="#27324A" stroke-width="1" /><line x1="488" y1="0" x2="488" y2="1080" stroke="#27324A" stroke-width="1" /><line x1="592" y1="0" x2="592" y2="1080" stroke="#27324A" stroke-width="1" /><line x1="696" y1="0" x2="696" y2="1080" stroke="#27324A" stroke-width="1" /><line x1="800" y1="0" x2="800" y2="1080" stroke="#27324A" stroke-width="1" /><line x1="904" y1="0" x2="904" y2="1080" stroke="#27324A" stroke-width="1" /><line x1="1008" y1="0" x2="1008" y2="1080" stroke="#27324A" stroke-width="1" /><line x1="1112" y1="0" x2="1112" y2="1080" stroke="#27324A" stroke-width="1" /><line x1="1216" y1="0" x2="1216" y2="1080" stroke="#27324A" stroke-width="1" /><line x1="1320" y1="0" x2="1320" y2="1080" stroke="#27324A" stroke-width="1" /><line x1="1424" y1="0" x2="1424" y2="1080" stroke="#27324A" stroke-width="1" /><line x1="1528" y1="0" x2="1528" y2="1080" stroke="#27324A" stroke-width="1" /><line x1="1632" y1="0" x2="1632" y2="1080" stroke="#27324A" stroke-width="1" /><line x1="1736" y1="0" x2="1736" y2="1080" stroke="#27324A" stroke-width="1" /><line x1="1840" y1="0" x2="1840" y2="1080" stroke="#27324A" stroke-width="1" />
  </g>
  <text x="92" y="116" fill="#7E8AA4" font-size="18" font-weight="700" font-family="Avenir Next, Helvetica Neue, Arial, sans-serif" text-anchor="start" letter-spacing="1.4"><tspan x="92" dy="0">RESOURCE ALLOCATION</tspan></text>
  <text x="92" y="180" fill="#F4F7FB" font-size="58" font-weight="550" font-family="Avenir Next, Helvetica Neue, Arial, sans-serif" text-anchor="start" letter-spacing="0"><tspan x="92" dy="0">Where to spend resources.</tspan></text>
  <text x="92" y="244" fill="#BBC6DB" font-size="25" font-weight="450" font-family="Avenir Next, Helvetica Neue, Arial, sans-serif" text-anchor="start" letter-spacing="0"><tspan x="92" dy="0">The next dollar should clean boundaries, establish product truth, and fund one decisive backend experiment. Not more sprawl.</tspan></text>
  <text x="1842" y="120" fill="#BBC6DB" font-size="22" font-weight="700" font-family="Avenir Next, Helvetica Neue, Arial, sans-serif" text-anchor="end" letter-spacing="0.8"><tspan x="1842" dy="0">6 / 7</tspan></text>
  <line x1="92" y1="206" x2="1828" y2="206" stroke="url(#lineGrad)" stroke-width="2" />
  
    
    <rect x="118" y="332" width="806" height="288" rx="26" ry="26" fill="#12210F" stroke="#C9FF2F" stroke-width="3" />
    <text x="154" y="410" fill="#F4F7FB" font-size="42" font-weight="650" font-family="Avenir Next, Helvetica Neue, Arial, sans-serif" text-anchor="start" letter-spacing="0"><tspan x="154" dy="0">STABILIZE NOW</tspan></text>
    <text x="154" y="464" fill="#BBC6DB" font-size="28" font-weight="500" font-family="Avenir Next, Helvetica Neue, Arial, sans-serif" text-anchor="start" letter-spacing="0"><tspan x="154" dy="0">Clean measurement / symbolic boundary</tspan><tspan x="154" dy="38">Canonical estimate flow</tspan><tspan x="154" dy="38">Stem reuse</tspan></text>
  
    
    <rect x="996" y="332" width="806" height="288" rx="26" ry="26" fill="#101A26" stroke="#6BD8FF" stroke-width="3" />
    <text x="1032" y="410" fill="#F4F7FB" font-size="42" font-weight="650" font-family="Avenir Next, Helvetica Neue, Arial, sans-serif" text-anchor="start" letter-spacing="0"><tspan x="1032" dy="0">EXTEND NEXT</tspan></text>
    <text x="1032" y="464" fill="#BBC6DB" font-size="28" font-weight="500" font-family="Avenir Next, Helvetica Neue, Arial, sans-serif" text-anchor="start" letter-spacing="0"><tspan x="1032" dy="0">torchcrepe backend experiment</tspan><tspan x="1032" dy="38">Phase 1 evaluation pack</tspan><tspan x="1032" dy="38">Symbolic dependency policy</tspan></text>
  
    
    <rect x="118" y="662" width="806" height="252" rx="26" ry="26" fill="#231518" stroke="#FF6A62" stroke-width="3" />
    <text x="154" y="740" fill="#F4F7FB" font-size="42" font-weight="650" font-family="Avenir Next, Helvetica Neue, Arial, sans-serif" text-anchor="start" letter-spacing="0"><tspan x="154" dy="0">STOP PRETENDING</tspan></text>
    <text x="154" y="794" fill="#BBC6DB" font-size="28" font-weight="500" font-family="Avenir Next, Helvetica Neue, Arial, sans-serif" text-anchor="start" letter-spacing="0"><tspan x="154" dy="0">More legacy wrapper surface</tspan><tspan x="154" dy="38">More heuristic detector sprawl</tspan><tspan x="154" dy="38">Product polish around ambiguous contracts</tspan></text>
  
    
    <rect x="996" y="662" width="806" height="252" rx="26" ry="26" fill="#231B11" stroke="#FFB357" stroke-width="3" />
    <text x="1032" y="740" fill="#F4F7FB" font-size="42" font-weight="650" font-family="Avenir Next, Helvetica Neue, Arial, sans-serif" text-anchor="start" letter-spacing="0"><tspan x="1032" dy="0">RESEARCH LATER</tspan></text>
    <text x="1032" y="794" fill="#BBC6DB" font-size="28" font-weight="500" font-family="Avenir Next, Helvetica Neue, Arial, sans-serif" text-anchor="start" letter-spacing="0"><tspan x="1032" dy="0">Beat / downbeat stack upgrade</tspan><tspan x="1032" dy="38">Deeper chord and structure work</tspan><tspan x="1032" dy="38">Additional symbolic backends</tspan></text>
  
    <rect x="648" y="950" width="626" height="52" rx="18" ry="18" fill="#6BD8FF" />
    <text x="961" y="985" fill="#10222B" font-size="24" font-weight="600" font-family="Avenir Next, Helvetica Neue, Arial, sans-serif" text-anchor="middle" letter-spacing="0"><tspan x="961" dy="0">Spending rule: stabilize the contract before buying more capability.</tspan></text>
  
  <text x="88" y="1038" fill="#7E8AA4" font-size="16" font-weight="500" font-family="Avenir Next, Helvetica Neue, Arial, sans-serif" text-anchor="start" letter-spacing="0.2"><tspan x="88" dy="0">Prioritized from repo seams, field-utilization evidence, dependency health, and primary-source MIR tooling review.</tspan></text>
</svg>